# xmcd
#
# Track frame offsets:
#	150
#	14452
#	29239
#	43003
#	60339
#	77402
#	85168
#	104689
#	114704
#	131655
#	156441
#
# Disc length: 2379 seconds
#
# Revision: 0
# Processed by: cddbd v1.5.2PL0 Copyright (c) Steve Scherf et al.
# Submitted via: dBpowerAMP V4.0
#
DISCID=9109490b
DTITLE=Bluedays - Guan Mor Time
DYEAR=2006
DGENRE=Blues
TTITLE0=Dame mas calor
TTITLE1=Gigolo
TTITLE2=Natural born believer
TTITLE3=Lady Caravalle
TTITLE4=Guan mor taim
TTITLE5=Loca por mi
TTITLE6=Como el cielo azul
TTITLE7=Triunvirato
TTITLE8=Iceman
TTITLE9=Llueve a mares
TTITLE10=The Perdido
EXTD=
EXTT0=
EXTT1=
EXTT2=
EXTT3=
EXTT4=
EXTT5=
EXTT6=
EXTT7=
EXTT8=
EXTT9=
EXTT10=
PLAYORDER=
